# Blender 3.6.2
# www.blender.org
mtllib pacman.mtl
o Sphere
v 0.500000 0.500000 -0.707107
v 0.270598 0.270598 -0.923880
v -0.270598 -0.270598 -0.923880
v -0.653281 -0.653281 -0.382683
v 0.270598 -0.270598 -0.923880
v -0.020598 -0.520598 -0.853553
v -0.308658 -0.691342 -0.653281
v -0.549728 -0.756835 -0.353553
v 0.500000 -0.500000 -0.707107
v 0.191342 -0.732538 -0.653281
v -0.146447 -0.853553 -0.500000
v -0.461940 -0.844623 -0.270598
v 0.653282 -0.653282 -0.382683
v 0.332956 -0.874152 -0.353553
v -0.038060 -0.961940 -0.270598
v -0.403281 -0.903282 -0.146447
v 0.707107 -0.707107 0.000000
v 0.382684 -0.923880 0.000000
v 0.000000 -1.000000 0.000000
v -0.382683 -0.923880 0.000000
v 0.653281 -0.653281 0.382684
v 0.332955 -0.874151 0.353554
v -0.038060 -0.961940 0.270598
v -0.403281 -0.903281 0.146447
v 0.500000 -0.500000 0.707107
v 0.191342 -0.732538 0.653282
v -0.146447 -0.853553 0.500000
v -0.461940 -0.844623 0.270598
v 0.270598 -0.270598 0.923880
v -0.020598 -0.520598 0.853554
v -0.308658 -0.691342 0.653282
v -0.549728 -0.756835 0.353554
v 0.707107 0.707107 0.000000
v 0.653281 0.653282 0.382684
v 0.500000 0.500000 0.707107
v 0.270598 0.270598 0.923880
v -0.000000 0.000000 1.000000
v -0.270598 -0.270598 0.923880
v -0.500000 -0.500000 0.707107
v -0.653282 -0.653281 0.382684
v 0.549728 0.756835 0.353553
v 0.308658 0.691342 0.653282
v 0.020598 0.520598 0.853553
v -0.270598 0.270598 0.923880
v -0.520598 -0.020598 0.853553
v -0.691342 -0.308658 0.653282
v -0.756835 -0.549728 0.353553
v 0.461940 0.844623 0.270598
v 0.146446 0.853553 0.500000
v -0.191342 0.732538 0.653281
v -0.500000 0.500000 0.707107
v -0.732538 0.191342 0.653281
v -0.853553 -0.146446 0.500000
v -0.844623 -0.461940 0.270598
v -0.707107 -0.707107 0.000000
v 0.403281 0.903282 0.146447
v 0.038060 0.961940 0.270598
v -0.332955 0.874151 0.353553
v -0.653282 0.653281 0.382683
v -0.874151 0.332955 0.353553
v -0.961940 -0.038060 0.270598
v -0.903281 -0.403281 0.146447
v 0.382683 0.923880 -0.000000
v 0.000000 1.000000 -0.000000
v -0.382683 0.923879 -0.000000
v -0.707107 0.707107 -0.000000
v -0.923879 0.382683 -0.000000
v -1.000000 -0.000000 -0.000000
v -0.923880 -0.382683 -0.000000
v 0.403281 0.903281 -0.146447
v 0.038060 0.961940 -0.270598
v -0.332955 0.874151 -0.353554
v -0.653281 0.653281 -0.382684
v -0.874151 0.332955 -0.353554
v -0.961940 -0.038060 -0.270598
v -0.903281 -0.403282 -0.146447
v 0.461940 0.844623 -0.270598
v 0.146447 0.853553 -0.500000
v -0.191341 0.732537 -0.653282
v -0.500000 0.500000 -0.707107
v -0.732537 0.191341 -0.653282
v -0.853553 -0.146447 -0.500000
v -0.844623 -0.461940 -0.270598
v 0.549728 0.756835 -0.353553
v 0.308658 0.691341 -0.653281
v 0.020598 0.520598 -0.853553
v -0.270598 0.270598 -0.923880
v -0.520598 -0.020598 -0.853553
v -0.691341 -0.308658 -0.653281
v -0.756835 -0.549728 -0.353553
v 0.653282 0.653281 -0.382683
v 0.000000 -0.000000 -1.000000
v -0.500000 -0.500000 -0.707107
vn -0.0000 -0.2708 -0.9626
vn -0.6656 -0.7204 -0.1949
vn -0.2722 -0.5030 -0.8203
vn -0.5067 -0.6620 -0.5522
vn -0.6149 -0.7711 -0.1653
vn -0.0590 -0.7162 -0.6954
vn -0.3632 -0.8056 -0.4681
vn 0.2502 -0.5210 -0.8161
vn -0.2534 -0.9154 -0.3128
vn 0.4417 -0.7125 -0.5453
vn -0.5761 -0.8099 -0.1104
vn 0.1042 -0.8793 -0.4647
vn -0.1939 -0.9749 -0.1098
vn 0.5453 -0.8161 -0.1915
vn -0.5552 -0.8308 -0.0388
vn 0.1925 -0.9676 -0.1632
vn -0.5552 -0.8308 0.0388
vn 0.1925 -0.9676 0.1632
vn -0.1939 -0.9749 0.1098
vn 0.5453 -0.8161 0.1915
vn 0.1042 -0.8793 0.4647
vn -0.2534 -0.9154 0.3128
vn 0.4417 -0.7125 0.5453
vn -0.5761 -0.8099 0.1104
vn -0.3632 -0.8056 0.4681
vn 0.2502 -0.5210 0.8161
vn -0.6149 -0.7711 0.1653
vn -0.0590 -0.7162 0.6954
vn -0.0000 -0.2708 0.9626
vn -0.6656 -0.7204 0.1949
vn -0.2722 -0.5030 0.8203
vn -0.5067 -0.6620 0.5522
vn -0.7204 -0.6656 0.1949
vn -0.5030 -0.2722 0.8203
vn -0.0000 0.2708 0.9626
vn 0.5067 0.6620 0.5522
vn -0.6620 -0.5067 0.5522
vn -0.2708 -0.0000 0.9626
vn 0.2722 0.5030 0.8203
vn 0.6656 0.7204 0.1949
vn -0.2502 0.5210 0.8161
vn 0.3632 0.8056 0.4681
vn -0.8056 -0.3632 0.4681
vn -0.5210 0.2502 0.8161
vn 0.0590 0.7162 0.6954
vn 0.6149 0.7711 0.1653
vn -0.7711 -0.6149 0.1653
vn -0.7162 -0.0590 0.6954
vn -0.9154 -0.2534 0.3128
vn -0.7125 0.4417 0.5453
vn -0.1042 0.8793 0.4647
vn 0.5761 0.8099 0.1104
vn -0.8099 -0.5761 0.1104
vn -0.8793 0.1042 0.4647
vn -0.4417 0.7125 0.5453
vn 0.2534 0.9154 0.3128
vn -0.1925 0.9676 0.1632
vn 0.5552 0.8308 0.0388
vn -0.8308 -0.5552 0.0388
vn -0.9676 0.1925 0.1632
vn -0.5453 0.8161 0.1915
vn 0.1939 0.9749 0.1098
vn -0.9749 -0.1939 0.1098
vn -0.8161 0.5453 0.1915
vn -0.8308 -0.5552 -0.0388
vn -0.9676 0.1925 -0.1632
vn -0.5453 0.8161 -0.1915
vn 0.1939 0.9749 -0.1098
vn -0.9749 -0.1939 -0.1098
vn -0.8161 0.5453 -0.1915
vn -0.1925 0.9676 -0.1632
vn 0.5552 0.8308 -0.0388
vn 0.2534 0.9154 -0.3128
vn -0.9154 -0.2534 -0.3128
vn -0.7125 0.4417 -0.5453
vn -0.1042 0.8793 -0.4647
vn 0.5761 0.8099 -0.1104
vn -0.8099 -0.5761 -0.1104
vn -0.8793 0.1042 -0.4647
vn -0.4417 0.7125 -0.5453
vn -0.8056 -0.3632 -0.4681
vn -0.5210 0.2502 -0.8161
vn 0.0590 0.7162 -0.6954
vn 0.6149 0.7711 -0.1653
vn -0.7711 -0.6149 -0.1653
vn -0.7162 -0.0590 -0.6954
vn -0.2502 0.5210 -0.8161
vn 0.3632 0.8056 -0.4681
vn 0.6656 0.7204 -0.1949
vn -0.7204 -0.6656 -0.1949
vn -0.5030 -0.2722 -0.8203
vn -0.0000 0.2708 -0.9626
vn 0.5067 0.6620 -0.5522
vn -0.6620 -0.5067 -0.5522
vn -0.2708 -0.0000 -0.9626
vn 0.2722 0.5030 -0.8203
vn 0.7071 0.7071 -0.0000
vn 0.7071 -0.7071 -0.0000
vt 0.657751 0.328129
vt 0.653915 0.404794
vt 0.582920 0.411193
vt 0.592160 0.334040
vt 0.386126 0.161911
vt 0.463657 0.177430
vt 0.452855 0.206105
vt 0.542548 0.190586
vt 0.610790 0.199377
vt 0.584713 0.268605
vt 0.522590 0.243571
vt 0.432897 0.228052
vt 0.536530 0.321590
vt 0.485712 0.284124
vt 0.532332 0.420768
vt 0.545423 0.342887
vt 0.437529 0.306071
vt 0.406821 0.239930
vt 0.825678 0.898970
vt 0.745351 0.910159
vt 0.739502 0.842722
vt 0.820274 0.836667
vt 0.896680 0.867108
vt 0.892544 0.819423
vt 0.385376 0.306071
vt 0.378596 0.239930
vt 0.737448 0.763174
vt 0.818376 0.763174
vt 0.891092 0.763174
vt 0.352519 0.228052
vt 0.820274 0.689682
vt 0.892544 0.706926
vt 0.337193 0.284124
vt 0.739502 0.683627
vt 0.825678 0.627378
vt 0.896680 0.659240
vt 0.317297 0.275670
vt 0.265604 0.336378
vt 0.238089 0.311174
vt 0.302406 0.262030
vt 0.745351 0.616190
vt 0.332561 0.206105
vt 0.219704 0.268279
vt 0.292457 0.238815
vt 0.164626 0.340557
vt 0.093201 0.345706
vt 0.067201 0.285043
vt 0.140605 0.284512
vt 0.321760 0.177429
vt 0.058071 0.208597
vt 0.132170 0.213885
vt 0.321760 0.146392
vt 0.213249 0.214223
vt 0.288963 0.209560
vt 0.332561 0.117716
vt 0.140605 0.139429
vt 0.219704 0.157237
vt 0.002231 0.199164
vt 0.010666 0.124708
vt 0.067201 0.128006
vt 0.810904 0.071289
vt 0.810904 0.151321
vt 0.780557 0.155619
vt 0.754831 0.079230
vt 0.292457 0.178720
vt 0.803364 0.002231
vt 0.730101 0.012608
vt 0.803364 0.230144
vt 0.034688 0.057759
vt 0.093201 0.055541
vt 0.753196 0.170257
vt 0.704274 0.106278
vt 0.238089 0.105996
vt 0.302406 0.150988
vt 0.164626 0.072479
vt 0.664045 0.047948
vt 0.352520 0.095769
vt 0.265604 0.068301
vt 0.317297 0.130588
vt 0.132113 0.002231
vt 0.200576 0.023228
vt 0.666930 0.148315
vt 0.615253 0.102871
vt 0.732986 0.193007
vt 0.378596 0.083891
vt 0.290552 0.499915
vt 0.277396 0.579599
vt 0.224411 0.568895
vt 0.233202 0.488330
vt 0.199377 0.642510
vt 0.146392 0.638077
vt 0.155183 0.563102
vt 0.723004 0.220405
vt 0.406821 0.083892
vt 0.199377 0.354602
vt 0.224411 0.413080
vt 0.155183 0.407287
vt 0.146392 0.350168
vt 0.158269 0.482060
vt 0.648485 0.198940
vt 0.385377 0.017750
vt 0.437529 0.017750
vt 0.432897 0.095769
vt 0.080250 0.407287
vt 0.089041 0.350168
vt 0.080250 0.563102
vt 0.077164 0.482060
vt 0.724769 0.248281
vt 0.651747 0.250447
vt 0.485712 0.039697
vt 0.089041 0.638077
vt 0.738013 0.272389
vt 0.676219 0.294994
vt 0.522590 0.080250
vt 0.452855 0.117716
vt 0.002231 0.488330
vt 0.011022 0.413080
vt 0.036056 0.642510
vt 0.011022 0.568895
vt 0.536531 0.002231
vt 0.584714 0.055216
vt 0.542548 0.133235
vt 0.463657 0.146392
vt 0.804200 0.328129
vt 0.812430 0.404794
vt 0.734508 0.402548
vt 0.732209 0.326053
vt 0.806126 0.485612
vt 0.786248 0.558277
vt 0.731149 0.556688
vt 0.734135 0.483536
vt 0.760720 0.289061
vt 0.610790 0.124445
vt 0.755822 0.611727
vt 0.726002 0.610867
vt 0.789432 0.295758
vt 0.659677 0.485612
vt 0.695161 0.611727
vt 0.674161 0.558277
vt 0.656199 0.638959
vt 0.732985 0.616190
vt 0.732985 0.997769
vt 0.656199 0.991492
vt 0.591102 0.957126
vt 0.547606 0.899900
vt 0.532332 0.828529
vt 0.547606 0.753877
vt 0.591102 0.687309
vt 0.448995 0.725965
vt 0.382128 0.680905
vt 0.337449 0.613468
vt 0.321760 0.533921
vt 0.337449 0.454373
vt 0.382128 0.386936
vt 0.448995 0.341876
vt 0.527869 0.326053
vt 0.527869 0.741788
s 0
usemtl Material.001
f 3/1/1 92/2/1 5/3/1 6/4/1
f 55/5/2 4/6/2 8/7/2
f 93/8/3 3/9/3 6/10/3 7/11/3
f 4/6/4 93/8/4 7/11/4 8/7/4
f 55/5/5 8/7/5 12/12/5
f 7/11/6 6/10/6 10/13/6 11/14/6
f 8/7/7 7/11/7 11/14/7 12/12/7
f 6/4/8 5/3/8 9/15/8 10/16/8
f 12/12/9 11/14/9 15/17/9 16/18/9
f 10/19/10 9/20/10 13/21/10 14/22/10
f 55/5/11 12/12/11 16/18/11
f 11/23/12 10/19/12 14/22/12 15/24/12
f 16/18/13 15/17/13 19/25/13 20/26/13
f 14/22/14 13/21/14 17/27/14 18/28/14
f 55/5/15 16/18/15 20/26/15
f 15/24/16 14/22/16 18/28/16 19/29/16
f 55/5/17 20/26/17 24/30/17
f 19/29/18 18/28/18 22/31/18 23/32/18
f 20/26/19 19/25/19 23/33/19 24/30/19
f 18/28/20 17/27/20 21/34/20 22/31/20
f 23/32/21 22/31/21 26/35/21 27/36/21
f 24/37/22 23/38/22 27/39/22 28/40/22
f 22/31/23 21/34/23 25/41/23 26/35/23
f 55/5/24 24/30/24 28/42/24
f 28/40/25 27/39/25 31/43/25 32/44/25
f 26/45/26 25/46/26 29/47/26 30/48/26
f 55/5/27 28/42/27 32/49/27
f 27/39/28 26/45/28 30/48/28 31/43/28
f 30/48/29 29/47/29 37/50/29 38/51/29
f 55/5/30 32/49/30 40/52/30
f 31/43/31 30/48/31 38/51/31 39/53/31
f 32/44/32 31/43/32 39/53/32 40/54/32
f 55/5/33 40/52/33 47/55/33
f 39/53/34 38/51/34 45/56/34 46/57/34
f 37/50/35 36/58/35 43/59/35 44/60/35
f 35/61/36 34/62/36 41/63/36 42/64/36
f 40/54/37 39/53/37 46/57/37 47/65/37
f 38/51/38 37/50/38 44/60/38 45/56/38
f 36/66/39 35/61/39 42/64/39 43/67/39
f 34/62/40 33/68/40 41/63/40
f 44/60/41 43/59/41 50/69/41 51/70/41
f 42/64/42 41/63/42 48/71/42 49/72/42
f 47/65/43 46/57/43 53/73/43 54/74/43
f 45/56/44 44/60/44 51/70/44 52/75/44
f 43/67/45 42/64/45 49/72/45 50/76/45
f 41/63/46 33/68/46 48/71/46
f 55/5/47 47/55/47 54/77/47
f 46/57/48 45/56/48 52/75/48 53/73/48
f 54/74/49 53/73/49 61/78/49 62/79/49
f 52/75/50 51/70/50 59/80/50 60/81/50
f 50/76/51 49/72/51 57/82/51 58/83/51
f 48/71/52 33/68/52 56/84/52
f 55/5/53 54/77/53 62/85/53
f 53/73/54 52/75/54 60/81/54 61/78/54
f 51/86/55 50/87/55 58/88/55 59/89/55
f 49/72/56 48/71/56 56/84/56 57/82/56
f 58/88/57 57/90/57 64/91/57 65/92/57
f 56/84/58 33/68/58 63/93/58
f 55/5/59 62/85/59 69/94/59
f 61/95/60 60/96/60 67/97/60 68/98/60
f 59/89/61 58/88/61 65/92/61 66/99/61
f 57/82/62 56/84/62 63/93/62 64/100/62
f 62/85/63 61/101/63 68/102/63 69/94/63
f 60/96/64 59/89/64 66/99/64 67/97/64
f 55/5/65 69/94/65 76/103/65
f 68/98/66 67/97/66 74/104/66 75/105/66
f 66/99/67 65/92/67 72/106/67 73/107/67
f 64/100/68 63/93/68 70/108/68 71/109/68
f 69/94/69 68/102/69 75/110/69 76/103/69
f 67/97/70 66/99/70 73/107/70 74/104/70
f 65/92/71 64/91/71 71/111/71 72/106/71
f 63/93/72 33/68/72 70/108/72
f 71/109/73 70/108/73 77/112/73 78/113/73
f 76/103/74 75/110/74 82/114/74 83/115/74
f 74/104/75 73/107/75 80/116/75 81/117/75
f 72/106/76 71/111/76 78/118/76 79/119/76
f 70/108/77 33/68/77 77/112/77
f 55/5/78 76/103/78 83/115/78
f 75/110/79 74/120/79 81/121/79 82/114/79
f 73/107/80 72/106/80 79/119/80 80/116/80
f 83/115/81 82/114/81 89/122/81 90/123/81
f 81/124/82 80/125/82 87/126/82 88/127/82
f 79/128/83 78/129/83 85/130/83 86/131/83
f 77/112/84 33/68/84 84/132/84
f 55/5/85 83/115/85 90/123/85
f 82/114/86 81/121/86 88/133/86 89/122/86
f 80/125/87 79/128/87 86/131/87 87/126/87
f 78/129/88 77/134/88 84/135/88 85/130/88
f 84/132/89 33/68/89 91/136/89
f 55/5/90 90/123/90 4/6/90
f 89/122/91 88/133/91 3/9/91 93/8/91
f 87/126/92 86/131/92 2/137/92 92/2/92
f 85/130/93 84/135/93 91/138/93 1/139/93
f 90/123/94 89/122/94 93/8/94 4/6/94
f 88/127/95 87/126/95 92/2/95 3/1/95
f 86/131/96 85/130/96 1/139/96 2/137/96
f 5/140/97 92/141/97 37/142/97 29/143/97 25/144/97 21/145/97 17/146/97 13/147/97 9/148/97
f 2/149/98 1/150/98 91/151/98 33/152/98 34/153/98 35/154/98 36/155/98 37/156/98 92/157/98
